<svg width="17" height="24" viewBox="0 0 17 24" fill="none" xmlns="http://www.w3.org/2000/svg">
<path d="M3.41797 23.7305C1.69531 23.7305 0.78125 22.793 0.78125 20.9414V12.8672C0.78125 11.2383 1.49609 10.3242 2.83203 10.125V7.28906C2.83203 2.88281 5.71484 0.738281 8.77344 0.738281C11.8438 0.738281 14.7266 2.88281 14.7266 7.28906V10.125C16.0742 10.3242 16.7773 11.2383 16.7773 12.8672V20.9414C16.7773 22.793 15.8633 23.7305 14.1406 23.7305H3.41797ZM4.69531 7.03125V10.0898H12.875V7.03125C12.875 4.07812 10.9648 2.50781 8.77344 2.50781C6.58203 2.50781 4.69531 4.07812 4.69531 7.03125Z" fill="#B6B6B6"/>
</svg>
